<svg preserveAspectRatio="xMidYMid meet" viewBox="0 0 3272 3272" width="24px" height="24px" fill="#016237" style="background-color: white"
  xmlns="http://www.w3.org/2000/svg">
  <path d="m15950 32714c-754-27-1327-75-1945-165-3848-557-7345-2456-9938-5397-559-634-1138-1411-1584-2127-1419-2278-2242-4799-2437-7470-56-757-56-1633 0-2390 206-2814 1116-5485 2669-7830 878-1326 1963-2535 3188-3554 2540-2112 5625-3396 8902-3706 884-83 1872-94 2750-29 2673 196 5192 1018 7470 2437 1453 905 2805 2087 3914 3420 2192 2637 3485 5842 3735 9262 56 757 56 1633 0 2390-163 2234-766 4366-1792 6340-1003 1930-2390 3651-4065 5044-2653 2206-5899 3507-9332 3741-411 28-1212 46-1535 34zm9640-7986-1-2823-83 230c-235 654-499 1219-824 1765-108 182-382 591-392 585-4-3-11-26-15-52-13-91-77-327-127-471-161-468-400-852-748-1203-158-160-294-274-451-380-181-121-186-123-544-213-531-133-1061-213-1695-258-243-17-1136-17-1410 0-993 62-1728 162-3620 496-1080 190-1465 253-1985 325-1410 195-2509 227-3544 105-418-49-941-148-1146-216-220-72-452-200-645-355-564-451-985-1240-1209-2266-22-100-42-193-44-207s-5 780-6 1764c-1 1478 1 1791 12 1800 8 6 19 52 26 101 27 204 100 475 186 696 301 771 863 1377 1586 1708 222 103 384 146 794 215 930 155 1916 176 3080 66 739-70 1401-170 2960-444 2062-363 2840-462 3915-497 417-14 1092 0 1255 26 518 82 977 286 1387 616 126 102 361 334 356 351-6 16-257 206-440 332-519 360-1152 707-1751 962-73 31-134 58-136 60s1180 4 2627 4h2632zm-17949-5963c1539-657 3186-893 5239-750 902 63 1645 164 3625 489 1872 308 2647 406 3705 468 284 17 1253 17 1505 0 596-40 1234-123 1541-202 484-125 984-409 1364-777 512-494 823-1096 943-1828 21-129 21-143 23-1860 1-1135-1-1715-8-1685-258 1200-742 2051-1429 2510-243 162-396 230-651 289-1260 290-2634 343-4333 166-713-75-1355-168-2910-425-1880-310-2682-411-3750-472-289-16-1190-16-1450 0-553 35-1029 94-1490 183-510 100-1065 409-1485 829-488 488-789 1087-901 1795-21 133-23 176-26 817l-4 677 179-84c98-46 239-109 313-140zm15079-5015c1342-121 2461-1067 2801-2370 123-470 131-1009 22-1500-34-158-128-439-197-591-364-807-1053-1435-1876-1712-176-59-698-154-900-164-63-3-117-10-121-14-12-19-508-62-924-80-287-13-1023-7-1320 11-1025 60-1863 167-3735 476-2289 377-3162 481-4320 514-445 13-1270-8-1270-31 0-5 15-32 34-61 113-177 223-468 260-688 115-678-105-1347-595-1815-538-514-1312-688-2022-454-648 212-1157 760-1321 1419-54 218-57 267-63 950-5 657 3 946 33 1149 85 577 309 1093 670 1546 111 139 347 375 484 485 316 253 714 460 1100 574 281 82 992 178 1625 218 258 16 1150 16 1440 0 1086-61 1816-154 3849-488 1468-241 2033-324 2721-398 1535-167 2767-150 3933 54 213 37 466 90 483 101 31 19-73 247-174 380-131 174-326 315-529 383-124 42-216 55-448 65-356 16-594 59-900 161-474 157-903 423-1249 773l-94 95 21 29c47 67 310 294 472 410 447 318 995 521 1540 572 136 12 436 13 570 1z" transform="matrix(.1 0 0 -.1 0 3272)"/>
</svg>
