<?xml version="1.0" standalone="no"?>
<!DOCTYPE svg PUBLIC "-//W3C//DTD SVG 20010904//EN"
 "http://www.w3.org/TR/2001/REC-SVG-20010904/DTD/svg10.dtd">
<svg version="1.0" xmlns="http://www.w3.org/2000/svg"
 width="3272.000000pt" height="3272.000000pt" viewBox="0 0 3272.000000 3272.000000"
 preserveAspectRatio="xMidYMid meet">
<metadata>
Created by potrace 1.14, written by Peter Selinger 2001-2017
</metadata>
<g transform="translate(0.000000,3272.000000) scale(0.100000,-0.100000)"
fill="#000000" stroke="none">
<path d="M15950 32714 c-449 -16 -811 -38 -1145 -69 -4164 -394 -8001 -2364
-10771 -5531 -1198 -1369 -2187 -2982 -2856 -4654 -661 -1654 -1037 -3329
-1148 -5125 -45 -733 -34 -1573 31 -2355 273 -3297 1543 -6426 3652 -8994 656
-799 1398 -1546 2190 -2205 2540 -2112 5625 -3396 8902 -3706 884 -83 1872
-94 2750 -29 4311 316 8277 2297 11131 5560 2138 2444 3510 5502 3904 8704 91
743 124 1288 124 2050 0 622 -24 1112 -80 1660 -296 2901 -1339 5622 -3055
7977 -785 1077 -1732 2085 -2762 2942 -2653 2206 -5899 3507 -9332 3741 -411
28 -1212 46 -1535 34z m9640 -7986 l-1 -2823 -83 230 c-235 654 -499 1219
-824 1765 -108 182 -382 591 -392 585 -4 -3 -11 -26 -15 -51 -14 -95 -75 -323
-125 -467 -164 -474 -402 -858 -750 -1208 -159 -160 -294 -274 -451 -380 -181
-121 -186 -123 -544 -213 -531 -133 -1061 -213 -1695 -258 -243 -17 -1136 -17
-1410 0 -994 62 -1726 162 -3620 496 -776 137 -1064 186 -1410 240 -2096 330
-3506 347 -4920 60 -261 -53 -417 -102 -585 -184 -693 -336 -1209 -1065 -1520
-2146 -38 -131 -121 -486 -138 -584 -2 -14 -5 780 -6 1764 -1 1478 1 1791 12
1800 8 6 19 52 26 101 27 204 100 475 186 696 301 771 863 1377 1586 1708 222
103 384 146 794 215 930 155 1916 176 3080 66 739 -70 1401 -170 2960 -444
2062 -363 2840 -462 3915 -497 417 -14 1092 0 1255 26 620 98 1156 371 1608
817 76 76 137 143 135 150 -6 16 -256 205 -440 332 -519 360 -1152 707 -1751
962 -73 31 -134 58 -136 60 -2 2 1180 4 2627 4 l2632 0 0 -2822z m-17949
-5963 c1539 -657 3186 -893 5239 -750 902 63 1645 164 3625 489 1872 308 2647
406 3705 468 284 17 1253 17 1505 0 454 -30 845 -74 1220 -138 249 -42 388
-77 557 -138 1152 -418 1968 -1461 2087 -2670 14 -143 13 -3472 -1 -3406 -252
1189 -743 2051 -1429 2510 -243 162 -396 230 -651 289 -1260 290 -2634 343
-4333 166 -713 -75 -1355 -168 -2910 -425 -1880 -310 -2682 -411 -3750 -472
-289 -16 -1190 -16 -1450 0 -718 46 -1475 154 -1762 253 -1032 356 -1822 1232
-2064 2289 -70 309 -72 336 -76 1082 l-4 677 179 -84 c98 -46 239 -109 313
-140z m15079 -5015 c1341 -121 2461 -1067 2801 -2369 123 -471 131 -1010 22
-1501 -34 -158 -128 -439 -197 -591 -364 -807 -1053 -1435 -1876 -1712 -176
-59 -698 -154 -900 -164 -63 -3 -117 -10 -121 -14 -12 -19 -508 -62 -924 -80
-287 -13 -1023 -7 -1320 11 -1025 60 -1863 167 -3735 476 -2289 377 -3162 481
-4320 514 -445 13 -1270 -8 -1270 -31 0 -5 15 -32 34 -61 113 -178 222 -466
261 -692 99 -580 -53 -1167 -421 -1622 -525 -650 -1399 -905 -2197 -643 -514
168 -940 542 -1178 1034 -118 244 -179 472 -198 740 -13 193 -14 1229 -1 1455
6 102 17 232 26 290 84 575 309 1092 670 1545 111 139 347 375 484 485 316
253 714 460 1100 574 281 82 992 178 1625 218 258 16 1150 16 1440 0 1086 -61
1816 -154 3849 -488 1468 -241 2033 -324 2721 -398 1535 -167 2767 -150 3933
54 213 37 466 90 483 101 31 19 -73 247 -174 380 -130 174 -325 315 -529 383
-122 41 -223 55 -453 66 -350 16 -590 58 -895 160 -474 157 -903 423 -1249
773 l-94 95 21 29 c44 62 299 285 457 400 436 317 1008 531 1555 582 136 12
436 13 570 1z"/>
</g>
</svg>
