<?xml version="1.0" standalone="no"?>
<!DOCTYPE svg PUBLIC "-//W3C//DTD SVG 20010904//EN"
 "http://www.w3.org/TR/2001/REC-SVG-20010904/DTD/svg10.dtd">
<svg version="1.0" xmlns="http://www.w3.org/2000/svg"
 width="512.000000pt" height="512.000000pt" viewBox="0 0 512.000000 512.000000"
 preserveAspectRatio="xMidYMid meet">
<metadata>
Created by potrace 1.14, written by Peter Selinger 2001-2017
</metadata>
<g transform="translate(0.000000,512.000000) scale(0.100000,-0.100000)"
fill="#000000" stroke="none">
<path d="M2310 5109 c-502 -55 -974 -249 -1355 -556 -129 -104 -340 -321 -433
-445 -271 -362 -440 -774 -504 -1228 -17 -124 -17 -516 0 -635 67 -464 234
-873 501 -1230 92 -122 304 -341 426 -440 365 -296 814 -489 1295 -557 124
-17 516 -17 635 0 490 70 922 254 1294 551 498 399 831 985 927 1636 22 147
29 428 15 575 -51 524 -238 988 -558 1385 -104 129 -321 340 -445 433 -354
265 -755 432 -1193 498 -121 18 -487 26 -605 13z m-1445 -1453 c44 -15 83 -31
88 -35 6 -6 -50 -152 -65 -166 -3 -3 -28 3 -56 14 -123 49 -232 48 -267 -2
-21 -31 -19 -99 4 -129 11 -13 73 -53 138 -89 138 -75 222 -150 241 -215 17
-58 15 -162 -5 -219 -10 -31 -34 -67 -63 -96 -64 -64 -146 -90 -285 -90 -109
0 -127 2 -223 33 l-62 20 0 104 0 104 53 -21 c142 -58 252 -75 312 -47 31 14
55 56 55 96 0 58 -37 93 -170 159 -68 35 -141 79 -161 99 -56 55 -82 123 -82
214 0 150 78 249 227 287 81 20 226 11 321 -21z m1617 23 c81 -17 153 -57 209
-116 89 -94 129 -218 129 -403 0 -352 -157 -531 -465 -531 -311 0 -467 181
-466 541 1 188 45 314 141 404 63 58 109 83 185 102 64 16 199 17 267 3z
m-692 -94 l0 -95 -125 0 -125 0 0 -425 0 -425 -115 0 -115 0 0 425 0 425 -125
0 -125 0 0 95 0 95 365 0 365 0 0 -95z m1705 72 c145 -41 211 -119 222 -262
10 -126 -33 -215 -139 -291 l-27 -19 139 -220 139 -220 -122 -3 c-66 -1 -126
-1 -132 2 -7 2 -60 92 -119 200 l-108 196 -44 0 -44 0 0 -200 0 -200 -115 0
-115 0 0 521 0 522 208 -6 c133 -3 225 -11 257 -20z m688 -190 c50 -114 94
-204 98 -200 4 4 44 94 89 198 46 105 87 196 92 203 11 13 248 18 248 6 0 -4
-72 -149 -160 -322 l-160 -315 0 -198 0 -199 -115 0 -115 0 0 195 0 195 -160
320 c-88 176 -160 322 -160 325 0 3 57 4 127 3 l126 -3 90 -208z m-1843 -1282
l0 -95 -165 0 -165 0 0 -130 0 -130 155 0 155 0 0 -90 0 -90 -155 0 -155 0 0
-205 0 -205 -115 0 -115 0 0 520 0 520 280 0 280 0 0 -95z m425 -117 c49 -115
92 -208 95 -208 3 0 29 58 59 128 30 70 71 164 92 210 l38 82 120 0 c71 0 121
-4 121 -10 0 -5 -70 -146 -155 -313 l-155 -304 0 -206 0 -207 -120 0 -120 0 0
200 0 200 -160 313 c-88 173 -157 317 -153 321 4 3 61 5 127 4 l121 -3 90
-207z"/>
<path d="M2282 3498 c-47 -16 -108 -87 -126 -147 -22 -76 -30 -205 -17 -296
22 -155 85 -234 195 -243 30 -2 70 1 90 8 45 15 109 86 125 141 35 115 30 329
-9 417 -49 111 -145 156 -258 120z"/>
<path d="M3260 3356 l0 -136 60 0 c109 0 160 45 160 141 0 51 -4 63 -29 91
-28 31 -33 33 -110 36 l-81 4 0 -136z"/>
</g>
</svg>
